<svg xmlns="http://www.w3.org/2000/svg" viewBox="0 0 1200 650"><style>svg{background:#020817}text{fill:#def;font:16px monospace}.h{fill:#fe8;font:bold 22px serif}.b{fill:#06152b;stroke:#2df;}.g{stroke:#4ef;fill:none}.y{fill:#fe6}</style><text x="600" y="30" text-anchor="middle" class="h">R–G–Ω · 2KB SVG</text><g transform="translate(20 50)"><rect class="b" width="370" height="155"/><text x="12" y="28" class="h">1 ζ / GENESIS</text><text x="12" y="65">H=(s−1)ζ; H(1)=1</text><text x="12" y="100">log1=0 → seed 2</text></g><g transform="translate(415 50)"><rect class="b" width="370" height="155"/><text x="12" y="28" class="h">2 EXACT CODE</text><text x="12" y="68">P→E(P)→D(E(P))=P</text></g><g transform="translate(810 50)"><rect class="b" width="370" height="155"/><text x="12" y="28" class="h">3 TURING MONAD</text><text x="12" y="68">𝔐:C′=δ(C)</text></g><g transform="translate(20 230)"><rect class="b" width="570" height="205"/><text x="12" y="28" class="h">4 ζ / MARKER</text><path class="g" d="M40 165V50M40 165H520M270 165V50"/><g class="y"><circle cx="270" cy="140" r="7"/><circle cx="270" cy="105" r="7"/><circle cx="270" cy="70" r="7"/></g><text x="300" y="75">Re(s)=1/2</text><text x="300" y="110">ζ(ρₙ)=0</text><text x="300" y="145">ρₙ↦Cₙ+ni</text><text x="12" y="190">Cₙ=Pₙ on-line; else Qₙ∉ℙ; convention≠RH</text></g><g transform="translate(615 230)"><rect class="b" width="565" height="205"/><text x="12" y="28" class="h">5 WORLDS / SERIES</text><text x="12" y="68">𝒰={U₀,U₁,…}</text><text x="12" y="103">𝒵=Σ E(P,U)/E(U)^s</text></g><g transform="translate(20 460)"><rect class="b" width="1160" height="145"/><text x="580" y="30" text-anchor="middle" class="h">6 LIMIT / Ω</text><text x="580" y="65" text-anchor="middle">𝔐₀→𝔐₁→…→𝔐ω:=colim(n&lt;ω)𝔐ₙ→Ω</text><text x="580" y="98" text-anchor="middle">sₖ→ζ(sₖ)→Π→SVG</text><text x="580" y="128" text-anchor="middle">RH=0 Ω_ATTAINED=0 PHYSICAL=0 OPEN=1 FINAL=0</text></g></svg>